# xmcd
# 
# Track frame offsets:
#     150
#     25084
#     60745
#     87603
#     104880
#     175237
#     187117
#     208607
#     220313
#     243626
#     272203
#     303612
# 
# Disc length: 4785
# 
# Revision: 20
# Processed by: cddbd v1.5.2PL0 Copyright (c) Steve Scherf et al.
# Submitted via: fre:ac v1.0.31
# 
DISCID=bf12af0c
DTITLE=Yes - The Studio albums 1969- 1987 Disc 9 Going For The One
DYEAR=1977
DGENRE=Rock/Pop
TTITLE0=Going For The One
TTITLE1=Turn Of The Century
TTITLE2=Parallels
TTITLE3=Wonderous Stories
TTITLE4=Awaken
TTITLE5=Montreux's Theme [bonus track]
TTITLE6=Vevey (Revisited) [bonus track]
TTITLE7=Amazing Grace [bonus track]
TTITLE8=Going For The One [rehearsal] [bonus track]
TTITLE9=Parallels [rehearsal] [bonus track]
TTITLE10=Turn Of The Century [rehearsal] [bonus track]
TTITLE11=Eastern Number [early version of "Awaken"] [bonus track]
EXTD=
EXTT0=
EXTT1=
EXTT2=
EXTT3=
EXTT4=
EXTT5=
EXTT6=
EXTT7=
EXTT8=
EXTT9=
EXTT10=
EXTT11=
PLAYORDER=
